<svg xmlns="http://www.w3.org/2000/svg" fill="none" viewBox="0 0 40 40" id="Playwright--Streamline-Svg-Logos" height="40" width="40"><desc>Playwright Streamline Icon: https://streamlinehq.com</desc><path fill="#2d4552" d="M13.326416666666667 21.902874999999998c-1.4620833333333334 0.4149583333333334 -2.421291666666667 1.1424583333333334 -3.053166666666667 1.8694166666666667 0.6052083333333333 -0.529625 1.415875 -1.0157083333333334 2.509458333333334 -1.3257083333333335 1.1185 -0.317 2.0727083333333334 -0.3147083333333333 2.8611666666666666 -0.16258333333333333v-0.6165416666666667c-0.6725833333333334 -0.061500000000000006 -1.4437083333333334 -0.0125 -2.317458333333333 0.23541666666666666Zm-3.12 -5.182958333333334 -5.429916666666667 1.4305416666666668s0.09895833333333333 0.13979166666666668 0.2821666666666667 0.3262916666666667l4.603916666666667 -1.2131250000000002s-0.06525 0.8406666666666667 -0.6317916666666666 1.5926666666666667c1.0716666666666668 -0.8107916666666667 1.175625 -2.136375 1.175625 -2.136375Zm4.545208333333334 12.76125C7.11025 31.539291666666667 3.0674708333333336 22.683750000000003 1.8434791666666666 18.087375c-0.5655 -2.1216666666666666 -0.8123583333333333 -3.7285 -0.8781541666666667 -4.765458333333333 -0.0070708333333333335 -0.10766666666666667 -0.0038041666666666666 -0.19841666666666669 0.0038083333333333337 -0.28158333333333335 -0.39639166666666664 0.023916666666666666 -0.5861691666666667 0.22995833333333332 -0.5475583333333334 0.8254166666666667 0.06579583333333333 1.036375 0.31265833333333337 2.643125 0.8781583333333334 4.765458333333333C2.5231791666666665 23.226875000000003 6.5665000000000004 32.08241666666667 14.207916666666666 30.024333333333338c1.6632500000000001 -0.44808333333333333 2.912791666666667 -1.2642083333333334 3.8507916666666664 -2.3060416666666668 -0.8645833333333335 0.7808750000000001 -1.9466666666666665 1.3958333333333335 -3.3070833333333334 1.7628750000000002Zm1.4359583333333334 -18.18091666666667v0.5438333333333333h2.9972499999999997c-0.061500000000000006 -0.19254166666666667 -0.12345833333333334 -0.36604166666666665 -0.18495833333333334 -0.5438333333333333h-2.812291666666667Z" stroke-width="0.4167"></path><path fill="#2d4552" d="M19.854833333333335 15.778916666666667c1.3479166666666667 0.38279166666666664 2.0608333333333335 1.3278333333333334 2.437625 2.1641666666666666l1.502916666666667 0.42683333333333334s-0.20500000000000002 -2.9269583333333333 -2.8525416666666668 -3.679c-2.4767916666666667 -0.7037083333333334 -4.000958333333333 1.3761666666666668 -4.186333333333334 1.6453333333333333 0.7205 -0.5133333333333333 1.772625 -0.9335833333333334 3.0983333333333336 -0.5573333333333333Zm11.963625 2.1776666666666666c-2.479041666666667 -0.706875 -4.002625 1.3773333333333335 -4.185291666666667 1.6427083333333334 0.7210416666666667 -0.5127083333333333 1.772625 -0.9331250000000001 3.09775 -0.5551666666666667 1.34575 0.3834166666666667 2.0580833333333333 1.3272916666666668 2.4360416666666667 2.1642083333333333l1.5050833333333333 0.42841666666666667s-0.20833333333333334 -2.9275416666666665 -2.8535833333333334 -3.6801666666666666Zm-1.4931666666666668 7.717499999999999 -12.502458333333333 -3.4952083333333337s0.13533333333333333 0.6862083333333334 0.6546666666666666 1.57475l10.5265 2.942791666666667c0.866625 -0.5014166666666667 1.3212916666666668 -1.0223333333333333 1.3212916666666668 -1.0223333333333333ZM21.657291666666666 33.19745833333334C11.757791666666666 30.543333333333337 12.954583333333334 17.930041666666668 14.556458333333333 11.953041666666667c0.6595416666666667 -2.463166666666667 1.337625 -4.293958333333333 1.8999166666666667 -5.521208333333333 -0.3355 -0.06904166666666667 -0.613375 0.10766666666666667 -0.8879583333333334 0.6660833333333334 -0.5970416666666667 1.2109583333333334 -1.3605 3.1825833333333335 -2.099375 5.942666666666667 -1.6014166666666667 5.976875000000001 -2.79825 18.589750000000002 7.100833333333334 21.243875000000003 4.665916666666667 1.25 8.300791666666667 -0.6498333333333334 11.010416666666668 -3.6334166666666667 -2.5719583333333333 2.3295 -5.855708333333333 3.635541666666667 -9.923 2.5464166666666666Z" stroke-width="0.4167"></path><path fill="#e2574c" d="M16.18766666666667 26.525291666666668V23.98l-7.071958333333334 2.0053333333333336s0.5225416666666667 -3.03625 4.210791666666667 -4.0825000000000005c1.1185 -0.317 2.0728333333333335 -0.31483333333333335 2.8611666666666666 -0.16258333333333333V11.300208333333334h3.5409583333333337c-0.38554166666666667 -1.191375 -0.7585000000000001 -2.1085833333333333 -1.07175 -2.745916666666667 -0.5182083333333334 -1.054875 -1.0494166666666669 -0.35558333333333336 -2.255416666666667 0.6530833333333333 -0.8494166666666668 0.7096250000000001 -2.996125 2.2234166666666666 -6.226500000000001 3.093916666666667 -3.2304583333333334 0.8710416666666667 -5.842083333333334 0.6400416666666667 -6.931766666666667 0.4513333333333333 -1.5448041666666668 -0.2665 -2.3528208333333334 -0.60575 -2.277229166666667 0.56925 0.06578333333333333 1.036375 0.31265833333333337 2.64325 0.8781541666666667 4.765458333333333C3.0675541666666666 22.683125 7.110875 31.53866666666667 14.75225 29.480583333333335c1.9960416666666667 -0.5378333333333334 3.4049166666666664 -1.600875 4.3815 -2.9558333333333335h-2.946083333333333v0.0005416666666666666ZM4.776041666666667 18.15041666666667l5.430458333333333 -1.4305416666666668s-0.1582916666666667 2.0890833333333334 -2.1940833333333334 2.62575c-2.0363333333333333 0.536125 -3.236375 -1.1952083333333334 -3.236375 -1.1952083333333334Z" stroke-width="0.4167"></path><path fill="#2ead33" d="M36.625125000000004 11.420833333333334c-1.4115833333333334 0.24745833333333334 -4.798125 0.5557500000000001 -8.983291666666666 -0.5660416666666667 -4.186333333333334 -1.1211250000000001 -6.963916666666667 -3.0819583333333336 -8.064375000000002 -4.003625 -1.56 -1.306625 -2.2462083333333336 -2.2147083333333333 -2.9215416666666667 -0.8411666666666667 -0.5970416666666667 1.2114583333333335 -1.3605416666666668 3.183125 -2.0995416666666666 5.943208333333334 -1.6012916666666668 5.976875000000001 -2.7980833333333335 18.589750000000002 7.100875000000001 21.243833333333335 9.896875000000001 2.651875 15.16575 -8.870291666666667 16.767166666666668 -14.847708333333335 0.7390000000000001 -2.759541666666667 1.0630416666666667 -4.849166666666667 1.1522083333333333 -6.1965416666666675 0.10166666666666667 -1.5262916666666668 -0.9467083333333334 -1.08325 -2.9515 -0.7319583333333334ZM16.736333333333334 16.365750000000002s1.56 -2.4262500000000005 4.205875 -1.6742500000000002c2.6475416666666667 0.7520416666666667 2.8525416666666668 3.679041666666667 2.8525416666666668 3.679041666666667l-7.058416666666667 -2.0047916666666667ZM23.195 27.253333333333334c-4.6539166666666665 -1.3632916666666668 -5.371666666666667 -5.074416666666667 -5.371666666666667 -5.074416666666667l12.501875 3.4953333333333334c0 -0.0005833333333333334 -2.5235000000000003 2.925291666666667 -7.130208333333334 1.5790833333333334Zm4.420166666666667 -7.626750000000001s1.5578333333333334 -2.4245833333333335 4.203208333333333 -1.6704166666666669c2.6452916666666666 0.7531666666666668 2.8535833333333334 3.6801666666666666 2.8535833333333334 3.6801666666666666l-7.056791666666666 -2.0097500000000004Z" stroke-width="0.4167"></path><path fill="#d65348" d="M13.716500000000002 24.680875 9.115833333333335 25.98479166666667s0.49975 -2.847041666666667 3.8889166666666664 -3.9752916666666667l-2.605125 -9.776625 -0.22512500000000002 0.06841666666666668c-3.2304166666666667 0.8711666666666668 -5.842041666666667 0.6400416666666667 -6.9317166666666665 0.4513333333333333 -1.5447958333333334 -0.26637500000000003 -2.3528083333333334 -0.60575 -2.277229166666667 0.5693750000000001 0.06579583333333333 1.036375 0.31265833333333337 2.643125 0.8781541666666667 4.765416666666667 1.2234458333333333 4.5957083333333335 5.266791666666667 13.451250000000002 12.908125000000002 11.393166666666666l0.22512500000000002 -0.07070833333333333 -1.2604583333333335 -4.729ZM4.776166666666667 18.1505l5.430458333333333 -1.430625s-0.1582916666666667 2.0890833333333334 -2.1940416666666667 2.62575c-2.036375 0.536125 -3.236416666666667 -1.195125 -3.236416666666667 -1.195125Z" stroke-width="0.4167"></path><path fill="#1d8d22" d="m23.404916666666665 27.304375000000004 -0.2105 -0.05116666666666667c-4.653875 -1.3631666666666666 -5.371666666666667 -5.074291666666667 -5.371666666666667 -5.074291666666667l6.446750000000001 1.802 3.413041666666667 -13.115250000000001 -0.041291666666666664 -0.010875000000000001c-4.186333333333334 -1.1211250000000001 -6.963750000000001 -3.0819583333333336 -8.064375000000002 -4.003625 -1.56 -1.306625 -2.2462083333333336 -2.2147083333333333 -2.9215416666666667 -0.8411666666666667 -0.5964583333333333 1.2114583333333335 -1.3599583333333334 3.183125 -2.0989583333333335 5.943208333333334 -1.6012916666666668 5.976875000000001 -2.7980833333333335 18.589750000000002 7.100875000000001 21.243750000000002l0.202875 0.04570833333333334 1.5447916666666668 -5.938291666666666ZM16.736333333333334 16.36579166666667s1.56 -2.4262916666666667 4.205875 -1.6742916666666667c2.6475416666666667 0.7520416666666667 2.8525416666666668 3.679041666666667 2.8525416666666668 3.679041666666667l-7.058416666666667 -2.00475Z" stroke-width="0.4167"></path><path fill="#c04b41" d="m13.950916666666666 24.613833333333336 -1.2337916666666668 0.3501666666666667c0.2914583333333334 1.6431666666666667 0.8052083333333334 3.2200833333333336 1.611625 4.613166666666667 0.14033333333333334 -0.031 0.2795416666666667 -0.057625 0.42250000000000004 -0.09679166666666668 0.3746666666666667 -0.10108333333333334 0.7220833333333334 -0.22625000000000003 1.0565833333333334 -0.36275 -0.901 -1.3370416666666667 -1.4970416666666668 -2.8769583333333335 -1.8569166666666668 -4.503791666666667Zm-0.48179166666666673 -11.573166666666667c-0.634 2.366375 -1.2012083333333332 5.7724166666666665 -1.0450833333333334 9.18875 0.2794583333333333 -0.12129166666666669 0.5746666666666667 -0.23429166666666668 0.9025833333333333 -0.3273333333333333l0.22841666666666668 -0.051041666666666666c-0.27845833333333336 -3.6492083333333336 0.32345833333333335 -7.3678333333333335 1.0015416666666668 -9.897916666666667 0.171875 -0.6400416666666667 0.34420833333333334 -1.2353750000000001 0.516 -1.7905833333333332 -0.27670833333333333 0.176125 -0.5746666666666667 0.356625 -0.9140416666666668 0.5425833333333334 -0.22887500000000002 0.7064166666666667 -0.4600000000000001 1.4785416666666669 -0.6894166666666667 2.335541666666667Z" stroke-width="0.4167"></path></svg>